# Blender v2.74 (sub 0) OBJ File: ''
# www.blender.org
o Icosphere
v 0.000000 -1.000000 0.000000
v 0.723600 -0.447215 0.525720
v -0.276385 -0.447215 0.850640
v -0.894425 -0.447215 0.000000
v -0.276385 -0.447215 -0.850640
v 0.723600 -0.447215 -0.525720
v 0.276385 0.447215 0.850640
v -0.723600 0.447215 0.525720
v -0.723600 0.447215 -0.525720
v 0.276385 0.447215 -0.850640
v 0.894425 0.447215 0.000000
v 0.000000 1.000000 0.000000
v -0.276385 -0.447215 0.850640
v -0.276385 -0.447215 0.850640
v -0.276385 -0.447215 0.850640
v -0.276385 -0.447215 0.850640
v 0.000000 -1.000000 0.000000
v 0.000000 -1.000000 0.000000
v 0.000000 -1.000000 0.000000
v 0.000000 -1.000000 0.000000
v 0.723600 -0.447215 0.525720
v 0.723600 -0.447215 0.525720
v 0.723600 -0.447215 0.525720
v 0.723600 -0.447215 0.525720
v 0.723600 -0.447215 -0.525720
v 0.723600 -0.447215 -0.525720
v 0.723600 -0.447215 -0.525720
v 0.723600 -0.447215 -0.525720
v -0.894425 -0.447215 0.000000
v -0.894425 -0.447215 0.000000
v -0.894425 -0.447215 0.000000
v -0.894425 -0.447215 0.000000
v -0.276385 -0.447215 -0.850640
v -0.276385 -0.447215 -0.850640
v -0.276385 -0.447215 -0.850640
v -0.276385 -0.447215 -0.850640
v 0.894425 0.447215 0.000000
v 0.894425 0.447215 0.000000
v 0.894425 0.447215 0.000000
v 0.894425 0.447215 0.000000
v 0.276385 0.447215 0.850640
v 0.276385 0.447215 0.850640
v 0.276385 0.447215 0.850640
v 0.276385 0.447215 0.850640
v -0.723600 0.447215 0.525720
v -0.723600 0.447215 0.525720
v -0.723600 0.447215 0.525720
v -0.723600 0.447215 0.525720
v -0.723600 0.447215 -0.525720
v -0.723600 0.447215 -0.525720
v -0.723600 0.447215 -0.525720
v -0.723600 0.447215 -0.525720
v 0.276385 0.447215 -0.850640
v 0.276385 0.447215 -0.850640
v 0.276385 0.447215 -0.850640
v 0.276385 0.447215 -0.850640
v 0.000000 1.000000 0.000000
v 0.000000 1.000000 0.000000
v 0.000000 1.000000 0.000000
v 0.000000 1.000000 0.000000
vt 0.999589 0.623620
vt 0.999589 0.840224
vt 0.812005 0.731922
vt 0.217814 0.999597
vt 0.326115 0.812012
vt 0.434416 0.999597
vt 0.811201 0.406209
vt 0.811201 0.622813
vt 0.623615 0.514511
vt 0.187988 0.673883
vt 0.000403 0.782187
vt 0.000403 0.565582
vt 0.543528 0.187988
vt 0.435227 0.000403
vt 0.651830 0.000403
vt 0.435224 0.623620
vt 0.622807 0.731919
vt 0.435224 0.840225
vt 0.435224 0.406209
vt 0.622809 0.514508
vt 0.435224 0.622814
vt 0.000403 0.188796
vt 0.217008 0.188796
vt 0.108705 0.376383
vt 0.217814 0.187988
vt 0.326117 0.000403
vt 0.434421 0.187988
vt 0.434417 0.593796
vt 0.217814 0.593796
vt 0.326114 0.406209
vt 0.108706 0.000403
vt 0.217008 0.187990
vt 0.000403 0.187990
vt 0.108707 0.377189
vt 0.217006 0.564776
vt 0.000403 0.564776
vt 0.623615 0.840225
vt 0.623615 0.623620
vt 0.811199 0.731919
vt 0.406206 0.405403
vt 0.406206 0.188796
vt 0.593789 0.297098
vt 0.405399 0.188796
vt 0.405399 0.405403
vt 0.217814 0.297100
vt 0.217814 0.594602
vt 0.405400 0.702903
vt 0.217814 0.811206
vt 0.652636 0.000403
vt 0.869240 0.000403
vt 0.760938 0.187988
vt 0.217004 0.970578
vt 0.000403 0.970578
vt 0.108704 0.782993
vt 0.970571 0.405400
vt 0.782987 0.297099
vt 0.970571 0.188796
vt 0.782180 0.188796
vt 0.782181 0.405401
vt 0.594596 0.297101
vn 0.187600 -0.794700 0.577400
vn 0.607100 -0.794700 0.000000
vn -0.491100 -0.794700 0.356800
vn -0.491100 -0.794700 -0.356800
vn 0.187600 -0.794700 -0.577400
vn 0.982200 -0.187600 0.000000
vn 0.303500 -0.187600 0.934200
vn -0.794600 -0.187600 0.577400
vn -0.794600 -0.187600 -0.577400
vn 0.303500 -0.187600 -0.934200
vn 0.794600 0.187600 0.577400
vn -0.303500 0.187600 0.934200
vn -0.982200 0.187600 0.000000
vn -0.303500 0.187600 -0.934200
vn 0.794600 0.187600 -0.577400
vn 0.491100 0.794700 0.356800
vn -0.187600 0.794700 0.577400
vn -0.607100 0.794700 0.000000
vn -0.187600 0.794700 -0.577400
vn 0.491100 0.794700 -0.356800
s off
f 1/1/1 2/2/1 3/3/1
f 21/4/2 17/5/2 6/6/2
f 18/7/3 13/8/3 4/9/3
f 19/10/4 29/11/4 5/12/4
f 20/13/5 33/14/5 25/15/5
f 22/16/6 26/17/6 11/18/6
f 14/19/7 23/20/7 7/21/7
f 30/22/8 15/23/8 8/24/8
f 34/25/9 31/26/9 9/27/9
f 27/28/10 35/29/10 10/30/10
f 24/31/11 37/32/11 41/33/11
f 16/34/12 42/35/12 45/36/12
f 32/37/13 46/38/13 49/39/13
f 36/40/14 50/41/14 53/42/14
f 28/43/15 54/44/15 38/45/15
f 43/46/16 39/47/16 12/48/16
f 47/49/17 44/50/17 57/51/17
f 51/52/18 48/53/18 58/54/18
f 55/55/19 52/56/19 59/57/19
f 40/58/20 56/59/20 60/60/20
